PathFileType	4	(X/Y/Z)	/private/var/folders/ty/39vw2z0n5t95rf49mx2f_75w0000gn/T/tmpv4vay5ru_Sports2D/tmpv4vay5ru_Sports2D_px_person00.trc
DataRate	CameraRate	NumFrames	NumMarkers	Units	OrigDataRate	OrigDataStartFrame	OrigNumFrames
60	60	5	22	m	60	55	220
Frame#	Time	Hip			RHip			RKnee			RAnkle			RBigToe			RSmallToe			RHeel			LHip			LKnee			LAnkle			LBigToe			LSmallToe			LHeel			Neck			Head			Nose			RShoulder			RElbow			RWrist			LShoulder			LElbow			LWrist		
		X1	Y1	Z1	X2	Y2	Z2	X3	Y3	Z3	X4	Y4	Z4	X5	Y5	Z5	X6	Y6	Z6	X7	Y7	Z7	X8	Y8	Z8	X9	Y9	Z9	X10	Y10	Z10	X11	Y11	Z11	X12	Y12	Z12	X13	Y13	Z13	X14	Y14	Z14	X15	Y15	Z15	X16	Y16	Z16	X17	Y17	Z17	X18	Y18	Z18	X19	Y19	Z19	X20	Y20	Z20	X21	Y21	Z21	X22	Y22	Z22
55	0.9166666666666666	483.9668241930567	571.048157682064	0.0	480.8145398955172	562.3959774894191	0.0	557.0929111495867	657.5709287154433	0.0	492.05480931827174	745.1692578273392	0.0	528.3378173602748	773.9025545154761	0.0	518.3052769191021	776.3581800471939	0.0	477.5954992377968	757.0288165608538	0.0	485.641351148146	565.7987074749216	0.0	428.9693499457415	670.4170568403474	0.0	318.5710416944318	706.3823232335999	0.0	290.6700398675418	752.8548794192095	0.0	291.5881186219956	747.0034202402925	0.0	299.4155780331941	701.3439306220702	0.0	570.5683871858309	459.4123811657426	0.0	615.9824796440771	396.5584690110527	0.0	619.3509219817164	434.6632451542728	0.0	536.0513139917883	462.2180935761023	0.0	456.052360422166	483.82878251232927	0.0	434.695942733408	553.3425683993177	0.0	591.3224194795623	479.85134297521614	0.0	592.474792336612	536.4996572436215	0.0	621.6540901622202	575.361242417183	0.0
56	0.9333333333333333	502.7654390437017	570.4765977872801	0.0	497.72807775663176	561.5055459128125	0.0	562.9839310164228	663.3714769426529	0.0	495.84568176559014	748.2933761044993	0.0	531.0174539754157	777.9276765366261	0.0	520.4463642361469	779.7731292549552	0.0	481.27647121948934	759.0760446655096	0.0	507.5009315645388	566.2300171358854	0.0	459.24928934930796	673.2980579576017	0.0	346.2374039449057	697.2265573782591	0.0	310.9872731956206	741.9146732384629	0.0	312.71932386562	736.5671309791527	0.0	327.6704256685673	689.8224492879605	0.0	586.8635777689011	455.8642032113077	0.0	631.9639288081819	392.9958196222572	0.0	634.8501025516773	431.7783192573033	0.0	551.8897250940295	460.61937044667917	0.0	477.1857473187257	494.8322785270254	0.0	471.9732469573994	565.1754888336451	0.0	606.6123492478379	476.21000408080624	0.0	596.5729102965724	532.9654642776608	0.0	617.880015115368	580.0058432010511	0.0
57	0.95	521.140961474621	569.867622489763	0.0	514.041323377525	560.8156201077803	0.0	566.6974788417924	669.1681776247875	0.0	496.17969026715963	750.929177362475	0.0	530.5768831465972	781.619972229822	0.0	519.2249912804118	782.7734599872131	0.0	481.28069057144523	760.6325815615895	0.0	529.0489157987153	567.0125511783632	0.0	492.21920437301486	675.9213981447821	0.0	378.3463675660874	689.6323424168837	0.0	339.7455420665969	732.6268202786921	0.0	342.0063314494327	727.4786513787571	0.0	360.5790761837851	680.7476850626808	0.0	603.2139361130902	452.69663704642835	0.0	648.0732028751864	390.1385444275937	0.0	650.3913784573506	429.59682574013124	0.0	568.0183163268109	459.56850494568585	0.0	500.93678743110894	506.1564953905127	0.0	513.1838617323393	573.5089940219925	0.0	621.280505467105	472.8626466136922	0.0	599.0925567558312	529.608910296734	0.0	615.343861358552	580.5869477961537	0.0
58	0.9666666666666667	539.5032082161912	569.0256125464784	0.0	530.4123237999219	560.2015801175841	0.0	569.0428337657116	674.1375030027376	0.0	494.7061231891554	752.6978049198136	0.0	528.3751793412683	784.6407751889985	0.0	516.1777903763528	785.0718184958844	0.0	479.37029191908437	761.4397584867316	0.0	550.2474757226836	567.7181622567174	0.0	527.5869091798847	677.2670255346094	0.0	414.3889986243907	684.3454597085067	0.0	376.78244340351364	726.3065449257998	0.0	379.11433576006385	720.9969976113574	0.0	397.44566652523093	675.0349153100567	0.0	619.7850552092701	449.9917930569407	0.0	664.3444597721561	387.9788904152347	0.0	666.0582354093459	427.95810804065775	0.0	585.0457354173303	459.120840430762	0.0	527.0353682423565	516.4858576296093	0.0	556.7764817352405	576.9257247496621	0.0	635.2689218918892	469.7453527958286	0.0	601.1844544865382	526.5765964256957	0.0	617.3828457080787	577.1327798574005	0.0
59	0.9833333333333333	558.3294105512164	567.9450575659089	0.0	547.4868623696944	559.6322167441276	0.0	570.9589325087405	677.7575555022804	0.0	492.95052541288055	753.3856830615671	0.0	525.4662554914339	786.8866478773418	0.0	512.5491571316835	786.5736938503233	0.0	477.1267077215034	761.228556209052	0.0	571.1405279193059	568.0264830215423	0.0	564.92561400035	676.4867949051666	0.0	453.5515383136634	681.9280704658528	0.0	421.0522598130324	723.5464149036728	0.0	422.97460234012414	717.8413567374625	0.0	437.21930040503196	673.3798802672194	0.0	636.6087226832005	447.7663038277819	0.0	680.8026804669848	386.27467036613547	0.0	681.9769057912742	426.63422039333113	0.0	603.3759711728591	459.05270519363563	0.0	554.8793500084876	524.7175407639605	0.0	600.6694266990941	575.3091920689659	0.0	648.5789678823091	466.74700892929695	0.0	604.5866486926211	523.8453740505502	0.0	626.2711108664098	570.814498419615	0.0
